<?xml version="1.0" encoding="utf-8"?>
<!-- Generator: Adobe Illustrator 21.0.0, SVG Export Plug-In . SVG Version: 6.00 Build 0)  -->
<svg version="1.1" id="Layer_1" xmlns="http://www.w3.org/2000/svg" xmlns:xlink="http://www.w3.org/1999/xlink" x="0px" y="0px"
	 width="397px" height="88px" viewBox="0 0 396.6 88" style="enable-background:new 0 0 396.6 88;" xml:space="preserve">
<style type="text/css">
	.st0{clip-path:url(#SVGID_2_);fill:#CF2A2B;}
	.st1{clip-path:url(#SVGID_4_);fill:#010101;}
</style>
<g>
	<defs>
		<polyline id="SVGID_1_" points="387.9,0.7 366.6,46.5 358.6,29.1 349.9,29.1 363.1,57.6 370.1,57.6 396.6,0.7 387.9,0.7 		"/>
	</defs>
	<clipPath id="SVGID_2_">
		<use xlink:href="#SVGID_1_"  style="overflow:visible;"/>
	</clipPath>
	<rect x="347" y="-2.2" class="st0" width="52.5" height="62.6"/>
</g>
<g>
	<defs>
		<path id="SVGID_3_" d="M295.4,86.2h17.4V54.5c0-7.2,4.2-12.3,10.5-12.3c6,0,9.1,4.2,9.1,10.2v33.7h17.4V49.1
			c0-12.5-7.6-21.4-19.9-21.4c-7.8,0-13.3,3.3-17.4,9.4h-0.3v-7.8h-16.8V86.2z M261.3,27.8c-18.2,0-30.3,13-30.3,30.1
			c0,17,12.2,30.1,30.3,30.1c18.2,0,30.3-13.1,30.3-30.1C291.6,40.8,279.5,27.8,261.3,27.8z M261.2,75.2c-8.3,0-12.6-6.9-12.6-17.3
			c0-10.5,4.4-17.3,12.6-17.3c8.2,0,12.8,6.8,12.8,17.3C274,68.3,269.5,75.2,261.2,75.2z M181.5,86.2h48.9V72.5h-27.7v-0.3
			l26.4-29.5V29.4h-47.6V43h26.8v0.3l-26.8,29.7V86.2z M159.1,86.2h17.5V29.4h-17.5V86.2z M118.5,86.2h17.4V60.1
			c0-11.9,7.1-17.1,18.1-15.6h0.3v-15c-0.9-0.3-1.9-0.4-3.6-0.4c-6.8,0-11.4,3.1-15.3,9.8h-0.3v-9.4h-16.6V86.2z M86.5,75.3
			c-7.7,0-12.4-5-13.3-12.6h41.2c0.1-12.2-3.1-22-9.9-28.1c-4.8-4.4-11.2-6.9-19.2-6.9c-17.2,0-29.1,13-29.1,30
			c0,17.1,11.4,30.2,30.2,30.2c7.1,0,12.8-1.9,17.5-5.1c5-3.4,8.6-8.4,9.6-13.4H96.8C95.1,73.1,91.7,75.3,86.5,75.3z M85.6,40.1
			c6.1,0,10.4,4.5,11,11.2H73.4C74.7,44.6,78.4,40.1,85.6,40.1z M21.4,86.2h18.3l19.9-56.8H42L30.9,65.9h-0.2L19.5,29.4h-18
			L21.4,86.2z M159.1,24.6h17.5V9.2h-17.5V24.6z"/>
	</defs>
	<clipPath id="SVGID_4_">
		<use xlink:href="#SVGID_3_"  style="overflow:visible;"/>
	</clipPath>
	<rect x="-1.4" y="6.3" class="st1" width="354.1" height="84.6"/>
</g>
</svg>
