<svg xmlns="http://www.w3.org/2000/svg" viewBox="0 0 256 256" xml:space="preserve">
  <linearGradient id="a" gradientUnits="userSpaceOnUse" x1="128" y1="256" x2="128" y2="0">
    <stop offset="0" stop-color="#e5e5e4"/>
    <stop offset="1" stop-color="#fafbfc"/>
  </linearGradient>
  <path d="M57 0h142c31.5 0 57 25.5 57 57v142c0 31.5-25.5 57-57 57H57c-31.5 0-57-25.5-57-57V57C0 25.5 25.5 0 57 0z" fill-rule="evenodd" clip-rule="evenodd" fill="url(#a)"/>
  <path d="M126.7 71.6c-4.4 0-11.1-5.1-18.2-4.9-9.4.1-18 5.5-22.8 14.1-9.7 17.2-2.5 42.7 7 56.7 4.7 6.8 10.2 14.5 17.5 14.2 7-.3 9.6-4.6 18.1-4.6 8.4 0 10.8 4.6 18.2 4.4 7.5-.1 12.3-6.9 16.9-13.8 5.3-7.9 7.5-15.6 7.7-16-.2-.1-14.6-5.7-14.8-22.8-.1-14.2 11.4-21.1 12-21.4-6.6-9.8-16.7-10.9-20.2-11.1-9.4-.7-17.1 5.2-21.4 5.2zm15.5-14.4c3.9-4.7 6.5-11.4 5.7-18-5.6.2-12.3 3.8-16.3 8.5-3.6 4.2-6.7 11-5.9 17.4 6.3.6 12.7-3.2 16.5-7.9" fill="#d0102b"/>
  <path d="M49.3 200.2H39l-2.5 7.3h-4.4l9.8-27.1h4.5l9.8 27.1h-4.4l-2.5-7.3zm-9.3-3.4h8.2l-4-11.9h-.1L40 196.8zm36.9.8c0 6.2-3.3 10.2-8.2 10.2-2.6.1-5-1.3-6.2-3.6h-.1v9.8h-4.1v-26.3h3.9v3.4h.1c1.2-2.3 3.7-3.8 6.3-3.7 5 0 8.3 4 8.3 10.2zm-4.2 0c0-4.1-2-6.8-5.2-6.8-3.1 0-5.2 2.7-5.2 6.8s2.1 6.8 5.2 6.8c3.2 0 5.2-2.6 5.2-6.8zm25.4 0c0 6.2-3.3 10.2-8.2 10.2-2.6.1-5-1.3-6.2-3.6h-.1v9.8h-4.1v-26.3h3.9v3.4h.1c1.2-2.3 3.7-3.8 6.3-3.7 5 0 8.3 4 8.3 10.2zm-4.2 0c0-4.1-2-6.8-5.2-6.8-3.1 0-5.2 2.7-5.2 6.8s2.1 6.8 5.2 6.8c3.2 0 5.2-2.6 5.2-6.8zm7-17.2h4.1v27.1h-4.1v-27.1zm24.7 21.3c-.6 3.6-4 6.2-8.5 6.2-5.8 0-9.3-3.9-9.3-10.2 0-6.2 3.6-10.3 9.1-10.3s8.9 3.9 8.9 9.9v1.4h-13.9v.2c0 3.4 2.1 5.7 5.3 5.7 2.3 0 4-1.2 4.6-2.9h3.8zm-13.7-5.9h9.9c-.1-3-2-5.1-4.8-5.1-2.9 0-4.9 2.1-5.1 5.1zm16.1-1.9c0-8.6 4.8-14 12.4-14 6.1 0 10.8 3.8 11.5 9.4h-4.2c-.7-3.4-3.8-5.9-7.3-5.7-4.9 0-8.1 4-8.1 10.3 0 6.3 3.2 10.3 8.1 10.3 3.8 0 6.5-1.9 7.3-5.2h4.2c-1 5.6-5.3 8.9-11.5 8.9-7.6 0-12.4-5.3-12.4-14zm26 8c0-3.4 2.6-5.6 7.3-5.8l5.4-.3v-1.5c0-2.2-1.5-3.5-4-3.5-2.4 0-3.8 1.1-4.2 2.9h-3.8c.2-3.6 3.3-6.2 8.1-6.2s7.8 2.5 7.8 6.5v13.6h-3.9v-3.3h-.1c-1.3 2.2-3.7 3.6-6.2 3.6-3.7-.1-6.4-2.5-6.4-6zm12.7-1.8v-1.6l-4.9.3c-2.4.2-3.8 1.2-3.8 2.9s1.4 2.9 3.6 2.9c2.9 0 5.1-1.9 5.1-4.5zm7.5-12.4h3.9v3.4h.1c.5-2.2 2.5-3.7 4.7-3.7.6 0 1.1.1 1.4.2v3.8c-.6-.2-1.2-.3-1.8-.2-2.6 0-4.2 1.7-4.2 4.5v11.8h-4.1v-19.8zm28.2 14c-.6 3.6-4 6.2-8.5 6.2-5.8 0-9.3-3.9-9.3-10.2 0-6.2 3.6-10.3 9.1-10.3s8.9 3.9 8.9 9.9v1.4h-13.9v.2c0 3.4 2.1 5.7 5.3 5.7 2.3 0 4-1.2 4.6-2.9h3.8zm-13.6-5.9h9.9c-.1-3-2-5.1-4.8-5.1-2.9 0-4.9 2.1-5.1 5.1zm28.3 10.6h-3.7v-7.8H206v-3.7h7.4v-7.8h3.7v7.8h7.5v3.7h-7.5v7.8z"/>
</svg>
